<svg width="60" height="60" viewBox="0 0 60 60" fill="none" xmlns="http://www.w3.org/2000/svg">
<g clip-path="url(#clip0_318_1474)">
<path d="M38.9634 43.4131L38.1142 38.4634C38.022 37.9249 37.5107 37.5632 36.9723 37.6559C36.4339 37.7482 36.0723 38.2595 36.1648 38.7979L36.675 41.7724L30.4601 38.5051C30.1718 38.3537 29.8278 38.3537 29.5397 38.5051L23.3249 41.7726L24.5118 34.852C24.5669 34.5312 24.4605 34.2039 24.2275 33.9767L19.1996 29.0756L26.1478 28.066C26.6886 27.9874 27.063 27.4856 26.9844 26.9449C26.9059 26.4042 26.4024 26.0298 25.8635 26.1085L16.9321 27.4063C16.5596 27.4603 16.25 27.7213 16.1336 28.0793C16.0173 28.4373 16.1144 28.8305 16.3838 29.0932L22.4744 35.0301L21.0367 43.4132C20.9731 43.7841 21.1255 44.1592 21.4301 44.3804C21.7346 44.6016 22.1383 44.6309 22.4716 44.4558L29.9999 40.4978L37.5284 44.4558C37.6734 44.5317 37.8313 44.5692 37.9886 44.5692C38.1938 44.5692 38.3978 44.5055 38.57 44.3802C38.8745 44.159 39.0271 43.784 38.9634 43.4131Z" fill="#5483ED"/>
<path d="M43.8662 28.0794C43.7499 27.7214 43.4403 27.4604 43.0677 27.4064L34.6507 26.1833L30.8865 18.5561C30.7199 18.2185 30.376 18.0048 29.9995 18.0048C29.623 18.0048 29.2793 18.2185 29.1125 18.5561L26.8749 23.0899C26.6338 23.5795 26.8349 24.1726 27.3246 24.4142C27.8147 24.6563 28.4075 24.4549 28.6492 23.965L29.9997 21.2284L33.1071 27.5247C33.2512 27.8165 33.5296 28.019 33.8517 28.0658L40.8001 29.0755L35.7721 33.9765C35.3809 34.3577 35.373 34.9839 35.7541 35.375C35.9481 35.5739 36.2051 35.6737 36.4625 35.6737C36.7113 35.6737 36.9605 35.5803 37.1528 35.3929L43.6158 29.0932C43.8855 28.8304 43.9824 28.4375 43.8662 28.0794Z" fill="#5483ED"/>
<path d="M25.8504 52.1274C22.5202 51.3734 19.42 49.7371 16.8679 47.4223C16.5487 47.0694 16.178 46.6975 15.7585 46.3367C15.3499 45.9051 14.9583 45.4547 14.5865 44.986C12.8487 42.7953 11.5782 40.2611 10.8367 37.5659C10.7732 37.2616 10.6951 36.9429 10.5995 36.6163C10.2563 35.097 10.0781 33.5348 10.0781 31.9601C10.0781 26.9517 11.8475 22.1213 15.0603 18.3585C15.1049 18.3061 15.1433 18.2505 15.1751 18.1924C15.1778 18.1916 15.1804 18.1912 15.1831 18.1902C16.3922 17.8003 19.3539 16.6042 20.7398 13.9262C22.1217 11.2555 21.4206 8.09885 21.0551 6.86545C20.9548 6.52713 20.7168 6.23792 20.4018 6.07186C20.0892 5.90686 19.719 5.87381 19.386 5.98092C18.1769 6.37081 15.2152 7.56682 13.8294 10.2449C12.4951 12.8236 13.1027 15.8549 13.4751 17.1709C12.4008 18.4435 11.4759 19.825 10.7113 21.2883C10.602 20.4865 10.3804 19.6698 9.99099 18.8905C9.51814 17.9439 8.00619 15.6045 4.19068 14.3308C3.85494 14.2185 3.47959 14.248 3.1606 14.4115C2.83869 14.5762 2.59306 14.8667 2.48666 15.2083C2.08107 16.5075 1.29029 19.8353 2.70556 22.668C3.17842 23.6145 4.69037 25.9538 8.50611 27.2277C8.53213 27.2364 8.55838 27.2434 8.58474 27.2505C8.26541 28.7882 8.10029 30.3658 8.10029 31.96C8.10029 32.1372 8.10275 32.3144 8.10685 32.4912C7.18365 31.7019 5.00244 30.2923 1.29709 30.406C0.943533 30.4169 0.601463 30.5744 0.358416 30.8379C0.113494 31.1038 -0.0165838 31.4614 0.00169742 31.8187C0.0703693 33.1779 0.479237 36.5739 2.78631 38.7424C3.53021 39.4414 5.62846 41.0216 9.38443 41.0216C9.5226 41.0216 9.66322 41.0195 9.80572 41.0152C9.85236 41.0138 9.899 41.0093 9.94506 41.0029C10.4324 42.149 11.0119 43.2546 11.68 44.3063C10.4965 44.1175 7.87705 44.0461 4.75623 46.1181C4.4615 46.3137 4.25373 46.6278 4.18611 46.9799C4.11803 47.3349 4.19596 47.7073 4.39998 48.0018C5.17494 49.1207 7.31279 51.7909 10.416 52.4172C10.7317 52.4809 11.2076 52.548 11.812 52.548C13.1943 52.5478 15.2473 52.1964 17.579 50.6482C17.6072 50.6295 17.634 50.6086 17.6607 50.5879C19.9958 52.2372 22.631 53.4266 25.4135 54.0566C25.487 54.0733 25.5604 54.0811 25.6327 54.0811C26.0845 54.0811 26.4925 53.7695 26.5965 53.3104C26.7174 52.7776 26.3832 52.2481 25.8504 52.1274ZM15.5861 11.154C16.4444 9.49526 18.2492 8.54686 19.3325 8.10553C19.5892 9.26827 19.8487 11.344 18.983 13.0171C18.1247 14.6759 16.3199 15.6243 15.2367 16.0656C14.9799 14.9029 14.7204 12.8273 15.5861 11.154ZM8.50014 25.1148C7.35885 24.6449 5.38529 23.6062 4.47498 21.784C3.55541 19.9435 3.89842 17.6686 4.19678 16.4438C5.33795 16.9137 7.3115 17.9523 8.22182 19.7746V19.7747C9.14115 21.615 8.79814 23.8902 8.50014 25.1148ZM4.14099 37.301C2.64181 35.8919 2.17705 33.6389 2.03326 32.3863C3.26678 32.4327 5.47763 32.725 6.96181 34.1199C7.86556 34.9691 8.39162 36.1242 8.69994 37.183C8.76017 37.4423 8.82556 37.7002 8.89459 37.9571C8.9792 38.3582 9.03428 38.7267 9.06955 39.0346C7.83603 38.9882 5.62506 38.6958 4.14099 37.301ZM10.8079 50.4783C8.79134 50.0713 7.20861 48.4015 6.42603 47.4132C7.49865 46.8024 9.53127 45.8849 11.5279 46.2882C12.6496 46.5146 13.6366 47.132 14.4269 47.8053C14.753 48.145 15.089 48.4737 15.4346 48.7909C15.6149 48.9917 15.775 49.1829 15.91 49.3532C14.8374 49.9641 12.8053 50.8811 10.8079 50.4783Z" fill="#5483ED"/>
<path d="M59.6412 30.8377C59.3982 30.5741 59.0562 30.4168 58.703 30.4059C54.998 30.2924 52.8162 31.7023 51.893 32.4914C51.8971 32.3144 51.8996 32.1374 51.8996 31.96C51.8996 30.3656 51.7344 28.7882 51.4151 27.2504C51.4415 27.2434 51.4677 27.2365 51.4936 27.2277C55.3097 25.9536 56.8216 23.6144 57.2944 22.6679C58.7092 19.8357 57.9188 16.5078 57.5132 15.2081C57.4066 14.8663 57.1606 14.5759 56.8392 14.4115C56.5203 14.2484 56.1451 14.2188 55.8094 14.3307C51.9938 15.6044 50.4817 17.9437 50.0088 18.8905C49.6194 19.6698 49.3976 20.4865 49.2884 21.2882C48.524 19.825 47.599 18.4433 46.5249 17.1708C46.8974 15.8549 47.5051 12.8236 46.1706 10.2448C44.7848 7.56656 41.8231 6.37054 40.6141 5.98078C40.2814 5.87331 39.911 5.90648 39.5979 6.07171C39.2831 6.23788 39.0451 6.52734 38.9451 6.86531C38.5795 8.09859 37.8785 11.2551 39.2603 13.926C40.6462 16.6041 43.6079 17.8 44.8169 18.19C44.8195 18.1908 44.8222 18.1912 44.8249 18.1922C44.8567 18.2502 44.8951 18.306 44.9397 18.3584C48.1525 22.1211 49.9219 26.9516 49.9219 31.96C49.9219 33.5347 49.7438 35.0972 49.4004 36.6166C49.3049 36.9429 49.2269 37.2612 49.1635 37.5652C48.422 40.2607 47.1515 42.795 45.4135 44.9858C45.0418 45.4543 44.6506 45.9044 44.2421 46.3357C43.822 46.6971 43.4507 47.0695 43.1313 47.4228C40.5795 49.7373 37.4795 51.3732 34.1497 52.1272C33.6169 52.2479 33.2829 52.7775 33.4035 53.3102C33.5075 53.7694 33.9153 54.081 34.3673 54.081C34.4397 54.081 34.5129 54.0729 34.5865 54.0565C37.369 53.4264 40.0042 52.2369 42.3393 50.5877C42.3658 50.6086 42.3924 50.6292 42.4206 50.648C44.7531 52.1966 46.8056 52.5479 48.1879 52.5479C48.7919 52.5479 49.2681 52.4808 49.5836 52.4171C52.6876 51.7908 54.8249 49.1207 55.5999 48.0018C55.8039 47.7073 55.8819 47.335 55.8138 46.9799C55.7461 46.6277 55.5384 46.3137 55.244 46.1184C52.1232 44.0463 49.5033 44.1177 48.32 44.3065C48.9881 43.2548 49.5676 42.1489 50.0549 41.003C50.1011 41.0094 50.1475 41.0137 50.1943 41.0153C50.3371 41.0196 50.4774 41.0217 50.6156 41.0217C54.3714 41.0217 56.4701 39.4414 57.2137 38.7425C59.521 36.574 59.9299 33.1781 59.9985 31.8186C60.0163 31.4609 59.8863 31.1032 59.6412 30.8377ZM44.7632 16.0655C43.6798 15.6243 41.8751 14.6759 41.017 13.0171C40.1513 11.3441 40.4105 9.26847 40.6675 8.1055C41.7509 8.54671 43.5555 9.49511 44.4138 11.1539C45.2793 12.8269 45.0202 14.9025 44.7632 16.0655ZM48.472 46.2881C50.4686 45.8853 52.5012 46.8022 53.574 47.4131C52.7917 48.4015 51.2089 50.0712 49.192 50.4783C47.1961 50.8807 45.1627 49.9642 44.0901 49.3533C44.2247 49.1831 44.3847 48.9921 44.5648 48.7915C44.9109 48.4737 45.2473 48.1444 45.574 47.8042C46.364 47.1313 47.3506 46.5144 48.472 46.2881ZM51.7782 19.7746C52.6886 17.9523 54.662 16.9137 55.8033 16.4437C56.1013 17.6687 56.4444 19.9437 55.5251 21.784C54.6148 23.6059 52.6414 24.6446 51.5 25.1148C51.2016 23.8902 50.8586 21.6152 51.7782 19.7746ZM55.8589 37.301C54.3747 38.696 52.1638 38.9882 50.9303 39.0346C50.9657 38.7266 51.0208 38.3579 51.1055 37.9564C51.1743 37.7003 51.2396 37.4428 51.2998 37.1841C51.608 36.1252 52.1343 34.9694 53.0384 34.12C54.5226 32.725 56.7333 32.4328 57.967 32.3864C57.8229 33.6387 57.3582 35.8918 55.8589 37.301Z" fill="#5483ED"/>
</g>
<defs>
<clipPath id="clip0_318_1474">
<rect width="60" height="60" fill="white"/>
</clipPath>
</defs>
</svg>
