<svg width="60" height="55" viewBox="0 0 60 55" fill="none" xmlns="http://www.w3.org/2000/svg">
<path d="M21.1536 4.45367C30.5644 -1.62018 50.5063 -0.0736113 56.5802 9.33718C62.6541 18.748 60.2492 45.7833 50.8384 51.8572C41.4276 57.931 7.53982 50.6143 1.46597 41.2035C-4.60788 31.7927 11.7428 10.5275 21.1536 4.45367Z" fill="#5483ED"/>
<mask id="mask0_3_12" style="mask-type:luminance" maskUnits="userSpaceOnUse" x="13" y="10" width="35" height="35">
<path d="M35.4057 10.2385L13.7629 22.7521L26.2765 44.3949L47.9193 31.8813L35.4057 10.2385Z" fill="white"/>
</mask>
<g mask="url(#mask0_3_12)">
<path d="M41.0685 20.6049L41.0672 20.6045L34.1079 18.7625C33.5866 18.6245 33.052 18.9352 32.9139 19.4567C32.7759 19.978 33.0867 20.5126 33.6081 20.6506L38.2805 21.8873L20.3763 32.2393C19.9093 32.5093 19.7497 33.1066 20.0196 33.5735C20.2896 34.0404 20.887 34.2001 21.3539 33.9301L39.2581 23.5781L37.9988 28.2445C37.8583 28.7652 38.1665 29.3012 38.6873 29.4417C39.2081 29.5823 39.744 29.2739 39.8845 28.7533L41.7602 21.803L41.7605 21.8017C41.9006 21.2798 41.589 20.7434 41.0685 20.6049Z" fill="white"/>
</g>
</svg>
