<svg width="25" height="25" viewBox="0 0 25 25" fill="none" xmlns="http://www.w3.org/2000/svg">
<g id="Telephone" clip-path="url(#clip0_318_1511)">
<g id="Group">
<path id="Vector" d="M24.2803 18.7414L20.667 15.1265C20.1817 14.6437 19.5319 14.3777 18.8376 14.3777C18.115 14.3777 17.4327 14.6622 16.9168 15.1784L15.5103 16.5846C14.4174 15.9771 12.9647 15.1416 11.4565 13.6334C9.95008 12.1264 9.11444 10.678 8.50384 9.57917L9.91171 8.17234C10.9584 7.12344 10.9798 5.44067 9.95959 4.42135L6.34699 0.808645C5.86308 0.323393 5.21329 0.0561523 4.51716 0.0561523C3.81069 0.0561523 3.14238 0.32815 2.62951 0.823227C2.31925 1.07309 0.762246 2.44756 0.181949 5.28213C-0.630527 9.24967 1.23622 13.0671 6.6253 18.4583C12.6453 24.4765 17.7846 24.9443 19.2164 24.9443C19.5145 24.9443 19.6943 24.9258 19.7423 24.9203C22.5499 24.5912 23.5551 23.3443 24.2891 22.4339C25.2402 21.254 25.2369 19.7014 24.2803 18.7414ZM23.0814 21.4602C22.3914 22.3159 21.7399 23.124 19.5618 23.3794C19.5607 23.3795 19.4416 23.3928 19.2164 23.3928C17.9354 23.3928 13.3206 22.9578 7.72228 17.3613C2.75259 12.3895 1.00828 8.98006 1.70172 5.59322C2.20787 3.12083 3.55162 2.06997 3.60385 2.03005L3.65018 1.99582L3.69082 1.95507C3.91514 1.73096 4.20855 1.60747 4.51706 1.60747C4.79795 1.60747 5.05774 1.71275 5.24928 1.90491L8.86271 5.51845C9.27846 5.93378 9.25633 6.63271 8.814 7.07597L7.22183 8.66679L7.19566 8.6942C6.78074 9.15122 6.82955 9.76885 7.05811 10.1711C7.71763 11.3612 8.62101 12.9912 10.3593 14.7301C12.0918 16.4626 13.7195 17.3652 14.9063 18.0235C15.0252 18.0902 15.2705 18.2021 15.5775 18.2021C15.9401 18.2021 16.273 18.0486 16.5195 17.7689L18.0137 16.2751C18.2368 16.0519 18.5293 15.9289 18.8374 15.9289C19.1189 15.9289 19.38 16.0345 19.5711 16.2246L23.1821 19.8371C23.6408 20.2974 23.4514 21.0012 23.0814 21.4602Z" fill="#5483ED"/>
<path id="Vector_2" d="M15.1458 3.85709C16.4786 4.01047 18.0479 4.81777 19.1437 5.91373C20.2498 7.01982 21.0591 8.60505 21.2052 9.95232C21.2483 10.3498 21.5845 10.6443 21.9754 10.6443C22.0033 10.6443 22.0316 10.6428 22.06 10.6398C22.4859 10.5935 22.7937 10.2109 22.7474 9.78499C22.5626 8.08195 21.602 6.17828 20.2407 4.81684C18.8921 3.46813 17.0079 2.50993 15.3231 2.31601C14.8978 2.26668 14.5129 2.57239 14.4639 2.99787C14.4149 3.42334 14.7201 3.80807 15.1458 3.85709Z" fill="#5483ED"/>
<path id="Vector_3" d="M14.421 7.10626C15.1418 7.18931 16.1394 7.72399 16.793 8.37751C17.4521 9.03672 17.9878 10.0438 18.0667 10.7724C18.1098 11.17 18.4459 11.4645 18.8369 11.4645C18.8648 11.4645 18.893 11.463 18.9214 11.46C19.3473 11.4138 19.6551 11.0311 19.6089 10.6052C19.474 9.36125 18.6482 8.03902 17.8897 7.28052C17.1381 6.52876 15.8288 5.70687 14.5984 5.56508C14.1724 5.51554 13.7881 5.82135 13.739 6.24683C13.6901 6.67241 13.9954 7.05724 14.421 7.10626Z" fill="#5483ED"/>
</g>
</g>
<defs>
<clipPath id="clip0_318_1511">
<rect width="25" height="25" fill="white"/>
</clipPath>
</defs>
</svg>
