<svg width="244" height="47" viewBox="0 0 244 47" fill="none" xmlns="http://www.w3.org/2000/svg">
<g clip-path="url(#clip0_14_6)">
<path d="M34.981 9.33816H21.8559V45.7632H13.9346V9.33816H0.809479V1.85527H34.981V9.33816ZM47.673 46.3816C45.2445 46.3816 43.0474 45.9487 41.0815 45.0829C39.1156 44.1759 37.4388 42.9596 36.0512 41.4342C34.6635 39.8675 33.5842 38.0947 32.8133 36.1158C32.0809 34.0957 31.7147 31.9724 31.7147 29.7461C31.7147 26.6539 32.3507 23.8299 33.6227 21.2737C34.9333 18.7175 36.7835 16.6767 39.1734 15.1513C41.6019 13.5846 44.4544 12.8013 47.7308 12.8013C51.0458 12.8013 53.879 13.5846 56.2303 15.1513C58.5816 16.6767 60.374 18.7175 61.6076 21.2737C62.8796 23.7886 63.5156 26.5096 63.5156 29.4368C63.5156 29.9316 63.4963 30.447 63.4578 30.9829C63.4193 31.4776 63.3807 31.8899 63.3422 32.2197H39.9251C40.0793 33.8688 40.5226 35.3118 41.255 36.5487C42.0259 37.7855 42.9896 38.7338 44.146 39.3934C45.3409 40.0118 46.6129 40.3211 47.9621 40.3211C49.5039 40.3211 50.9494 39.9293 52.2986 39.1461C53.6862 38.3215 54.6307 37.2496 55.1317 35.9303L61.781 37.9092C61.0487 39.5583 59.9886 41.022 58.6009 42.3C57.2518 43.578 55.6521 44.5882 53.8019 45.3303C51.9516 46.0312 49.9086 46.3816 47.673 46.3816ZM39.7516 26.9632H55.5943C55.4402 25.3141 54.9968 23.8917 54.2644 22.6961C53.5706 21.4592 52.6455 20.5109 51.4891 19.8513C50.3327 19.1504 49.0413 18.8 47.6152 18.8C46.2275 18.8 44.9554 19.1504 43.799 19.8513C42.6811 20.5109 41.756 21.4592 41.0237 22.6961C40.3298 23.8917 39.9058 25.3141 39.7516 26.9632ZM82.3436 46.3816C79.8767 46.3816 77.6602 45.9487 75.6944 45.0829C73.7285 44.1759 72.0517 42.9391 70.664 41.3724C69.2763 39.7645 68.1971 37.9504 67.4261 35.9303C66.6938 33.9101 66.3275 31.7868 66.3275 29.5605C66.3275 26.5096 66.9635 23.7267 68.2356 21.2118C69.5462 18.6557 71.3965 16.6149 73.7863 15.0895C76.1762 13.5641 79.0094 12.8013 82.2858 12.8013C85.5624 12.8013 88.3762 13.5641 90.7275 15.0895C93.0789 16.6149 94.8327 18.6145 95.9891 21.0882L88.4147 23.5618C87.7595 22.3662 86.8922 21.4592 85.8128 20.8408C84.7336 20.1812 83.5387 19.8513 82.228 19.8513C80.7633 19.8513 79.4141 20.2636 78.1806 21.0882C76.9857 21.8715 76.0413 23.0053 75.3474 24.4895C74.6536 25.9325 74.3067 27.6228 74.3067 29.5605C74.3067 31.457 74.6536 33.1474 75.3474 34.6316C76.0799 36.0746 77.0435 37.2289 78.2384 38.0947C79.4334 38.9193 80.7633 39.3316 82.228 39.3316C83.1531 39.3316 84.0204 39.1667 84.8299 38.8368C85.678 38.507 86.4297 38.0536 87.0849 37.4763C87.7402 36.8991 88.2221 36.2395 88.5304 35.4974L96.1048 37.9711C95.4109 39.579 94.3895 41.022 93.0403 42.3C91.7298 43.578 90.1686 44.5882 88.3569 45.3303C86.5838 46.0312 84.5794 46.3816 82.3436 46.3816ZM129.031 45.7632H121.283V27.5816C121.283 25.0667 120.82 23.1908 119.895 21.954C119.008 20.7171 117.775 20.0987 116.195 20.0987C115.269 20.0987 114.286 20.3872 113.246 20.9645C112.205 21.5417 111.261 22.3457 110.413 23.3763C109.603 24.3658 109.006 25.5201 108.62 26.8395V45.7632H100.872V0.618423H108.62V19.3566C109.738 17.2951 111.261 15.6872 113.188 14.5329C115.115 13.3786 117.216 12.8013 119.491 12.8013C121.456 12.8013 123.056 13.1724 124.29 13.9145C125.522 14.6154 126.487 15.5842 127.181 16.8211C127.875 18.0167 128.356 19.3772 128.626 20.9026C128.896 22.3868 129.031 23.9329 129.031 25.5408V45.7632Z" fill="white"/>
<path d="M170.925 1.85527V45.7632H163.004V27.025H144.386V45.7632H136.406V1.85527H144.386V19.604H163.004V1.85527H170.925ZM178.737 45.7632V13.3579H186.485V45.7632H178.737ZM178.737 8.84342V0.618423H186.485V8.84342H178.737ZM211.514 20.5316C209.162 20.5316 207.062 21.0263 205.212 22.0158C203.362 22.9641 202.032 24.3451 201.222 26.1592V45.7632H193.475V13.3579H200.586V20.2842C201.665 18.0579 203.033 16.3057 204.692 15.0276C206.349 13.7496 208.103 13.0487 209.953 12.925C210.377 12.925 210.705 12.925 210.936 12.925C211.168 12.925 211.359 12.9457 211.514 12.9868V20.5316ZM213.583 36.1776C213.583 34.075 214.123 32.2404 215.202 30.6737C216.32 29.0658 217.862 27.8289 219.828 26.9632C221.794 26.0974 224.049 25.6645 226.593 25.6645C227.865 25.6645 229.156 25.7675 230.467 25.9737C231.778 26.1799 232.915 26.5096 233.878 26.9632V25.2316C233.878 23.1701 233.3 21.5829 232.143 20.4697C231.026 19.3566 229.35 18.8 227.113 18.8C225.456 18.8 223.875 19.1092 222.372 19.7276C220.869 20.3461 219.289 21.253 217.631 22.4487L215.144 17.0066C217.15 15.6049 219.192 14.5536 221.273 13.8526C223.394 13.1517 225.61 12.8013 227.923 12.8013C232.241 12.8013 235.594 13.9557 237.983 16.2645C240.412 18.5733 241.626 21.8715 241.626 26.1592V36.4868C241.626 37.3526 241.761 37.9711 242.031 38.3421C242.339 38.7132 242.822 38.9399 243.476 39.0224V45.7632C242.782 45.8868 242.146 45.9899 241.568 46.0724C241.029 46.1549 240.567 46.1961 240.18 46.1961C238.639 46.1961 237.463 45.825 236.653 45.0829C235.883 44.3408 235.401 43.4338 235.208 42.3618L235.034 40.6921C233.724 42.5062 232.086 43.9079 230.12 44.8974C228.154 45.8868 226.15 46.3816 224.106 46.3816C222.102 46.3816 220.29 45.9487 218.671 45.0829C217.092 44.1759 215.838 42.9596 214.913 41.4342C214.027 39.8675 213.583 38.1154 213.583 36.1776ZM232.433 37.8474C232.857 37.3526 233.204 36.8579 233.473 36.3632C233.744 35.8684 233.878 35.4149 233.878 35.0026V31.725C232.953 31.3128 231.951 31.0036 230.871 30.7974C229.792 30.55 228.771 30.4263 227.807 30.4263C225.803 30.4263 224.146 30.9004 222.834 31.8487C221.562 32.7557 220.926 33.972 220.926 35.4974C220.926 36.322 221.139 37.1053 221.562 37.8474C221.987 38.5895 222.603 39.1872 223.413 39.6408C224.222 40.0943 225.187 40.3211 226.304 40.3211C227.46 40.3211 228.598 40.0943 229.715 39.6408C230.833 39.1461 231.739 38.5483 232.433 37.8474Z" fill="#4285F4"/>
</g>
<defs>
<clipPath id="clip0_14_6">
<rect width="244" height="47" fill="white"/>
</clipPath>
</defs>
</svg>
