<?xml version="1.0" encoding="UTF-8"?>
<svg xmlns="http://www.w3.org/2000/svg" width="45" height="45" viewBox="0 0 45 45" fill="none">
  <g clip-path="url(#clip0_1126_5762)">
    <path d="M16.3074 1.14258C16.5501 1.14258 16.7468 0.945828 16.7468 0.703125C16.7468 0.460422 16.5501 0.263672 16.3074 0.263672C16.0647 0.263672 15.8679 0.460422 15.8679 0.703125C15.8679 0.945828 16.0647 1.14258 16.3074 1.14258Z" fill="#FF6C23" stroke="#FF6C23" stroke-width="0.5"></path>
    <path d="M34.8523 13.0308C35.095 13.0308 35.2917 12.834 35.2917 12.5913C35.2917 12.3486 35.095 12.1519 34.8523 12.1519C34.6096 12.1519 34.4128 12.3486 34.4128 12.5913C34.4128 12.834 34.6096 13.0308 34.8523 13.0308Z" fill="#FF6C23" stroke="#FF6C23" stroke-width="0.5"></path>
    <path d="M32.1276 0.263672H18.0651C17.9486 0.263672 17.8368 0.309971 17.7544 0.392385C17.672 0.474798 17.6257 0.586575 17.6257 0.703125C17.6257 0.819675 17.672 0.931452 17.7544 1.01387C17.8368 1.09628 17.9486 1.14258 18.0651 1.14258H32.1276C32.7331 1.14466 33.3131 1.38609 33.7412 1.81419C34.1693 2.24229 34.4107 2.82231 34.4128 3.42773V6.07658H9.13721V3.42773C9.13929 2.82231 9.38072 2.24229 9.80882 1.81419C10.2369 1.38609 10.8169 1.14466 11.4224 1.14258H14.5495C14.6072 1.14281 14.6644 1.13167 14.7178 1.1098C14.7712 1.08793 14.8198 1.05575 14.8608 1.01511C14.9017 0.974464 14.9343 0.926149 14.9566 0.87292C14.9789 0.819692 14.9905 0.762593 14.9907 0.704883C14.991 0.647173 14.9798 0.589983 14.9579 0.536578C14.9361 0.483172 14.9039 0.434598 14.8633 0.393628C14.8226 0.352657 14.7743 0.320094 14.7211 0.297796C14.6678 0.275498 14.6107 0.263903 14.553 0.263672H11.4224C10.5835 0.264649 9.77928 0.598318 9.18611 1.19148C8.59295 1.78465 8.25928 2.58887 8.2583 3.42773V41.5723C8.25928 42.4111 8.59295 43.2154 9.18611 43.8085C9.77928 44.4017 10.5835 44.7354 11.4224 44.7363H32.1276C32.9664 44.7351 33.7705 44.4013 34.3636 43.8082C34.9567 43.2151 35.2904 42.411 35.2917 41.5723V14.3543C35.2917 14.2377 35.2454 14.126 35.163 14.0436C35.0806 13.9611 34.9688 13.9148 34.8522 13.9148C34.7357 13.9148 34.6239 13.9611 34.5415 14.0436C34.4591 14.126 34.4128 14.2377 34.4128 14.3543V38.0443H9.13721V6.95549H34.4128V10.8281C34.4128 10.9447 34.4591 11.0565 34.5415 11.1389C34.6239 11.2213 34.7357 11.2676 34.8522 11.2676C34.9688 11.2676 35.0806 11.2213 35.163 11.1389C35.2454 11.0565 35.2917 10.9447 35.2917 10.8281V3.42773C35.2904 2.58896 34.9567 1.7849 34.3636 1.19179C33.7705 0.598686 32.9664 0.264927 32.1276 0.263672ZM34.4128 38.9232V41.5723C34.4107 42.1777 34.1693 42.7577 33.7412 43.1858C33.3131 43.6139 32.7331 43.8553 32.1276 43.8574H11.4224C10.8169 43.8553 10.2369 43.6139 9.80882 43.1858C9.38072 42.7577 9.13929 42.1777 9.13721 41.5723V38.9232H34.4128Z" fill="#FF6C23" stroke="#FF6C23" stroke-width="0.5"></path>
    <path d="M25.2616 4.05005C25.3781 4.05005 25.4899 4.00375 25.5723 3.92134C25.6547 3.83892 25.701 3.72715 25.701 3.6106C25.701 3.49405 25.6547 3.38227 25.5723 3.29986C25.4899 3.21744 25.3781 3.17114 25.2616 3.17114H25.0401C24.9235 3.17114 24.8118 3.21744 24.7293 3.29986C24.6469 3.38227 24.6006 3.49405 24.6006 3.6106C24.6006 3.72715 24.6469 3.83892 24.7293 3.92134C24.8118 4.00375 24.9235 4.05005 25.0401 4.05005H25.2616ZM22.6477 4.05005C22.7643 4.05005 22.876 4.00375 22.9584 3.92134C23.0409 3.83892 23.0872 3.72715 23.0872 3.6106C23.0872 3.49405 23.0409 3.38227 22.9584 3.29986C22.876 3.21744 22.7643 3.17114 22.6477 3.17114H18.2883C18.1718 3.17114 18.06 3.21744 17.9776 3.29986C17.8952 3.38227 17.8489 3.49405 17.8489 3.6106C17.8489 3.72715 17.8952 3.83892 17.9776 3.92134C18.06 4.00375 18.1718 4.05005 18.2883 4.05005H22.6477ZM29.3891 22.0606H27.6733C27.2094 22.056 26.7661 21.8684 26.4397 21.5388C26.1133 21.2091 25.9303 20.764 25.9303 20.3001C25.9303 19.8362 26.1133 19.391 26.4397 19.0613C26.7661 18.7317 27.2094 18.5442 27.6733 18.5395H31.589C31.7055 18.5395 31.8173 18.4932 31.8997 18.4108C31.9821 18.3284 32.0284 18.2166 32.0284 18.1001C32.0284 17.9835 31.9821 17.8717 31.8997 17.7893C31.8173 17.7069 31.7055 17.6606 31.589 17.6606H27.6733C26.977 17.6663 26.3112 17.9469 25.8208 18.4413C25.3304 18.9356 25.0553 19.6037 25.0553 20.3001C25.0553 20.9964 25.3304 21.6645 25.8208 22.1589C26.3112 22.6532 26.977 22.9338 27.6733 22.9395H29.3891C29.853 22.9441 30.2963 23.1317 30.6227 23.4613C30.949 23.791 31.1321 24.2361 31.1321 24.7C31.1321 25.1639 30.949 25.6091 30.6227 25.9388C30.2963 26.2684 29.853 26.4559 29.3891 26.4606H25.4734C25.3568 26.4606 25.2451 26.5069 25.1626 26.5893C25.0802 26.6717 25.0339 26.7835 25.0339 26.9C25.0339 27.0166 25.0802 27.1284 25.1626 27.2108C25.2451 27.2932 25.3568 27.3395 25.4734 27.3395H29.3891C30.0854 27.3338 30.7512 27.0532 31.2416 26.5588C31.7319 26.0645 32.0071 25.3964 32.0071 24.7C32.0071 24.0037 31.7319 23.3356 31.2416 22.8412C30.7512 22.3469 30.0854 22.0663 29.3891 22.0606ZM22.2364 19.0864C22.3109 18.9969 22.3469 18.8814 22.3363 18.7654C22.3258 18.6493 22.2696 18.5422 22.1801 18.4676C22.0894 18.396 21.9746 18.362 21.8595 18.3724C21.7444 18.3829 21.6377 18.4371 21.5614 18.5239C21.4901 18.6137 21.4567 18.7279 21.4685 18.8421C21.4802 18.9562 21.5362 19.0612 21.6243 19.1346C21.7124 19.2081 21.8258 19.2441 21.9402 19.2351C22.0545 19.2261 22.1608 19.1727 22.2364 19.0864Z" fill="#FF6C23" stroke="#FF6C23" stroke-width="0.5"></path>
    <path d="M22.7339 19.8245C22.6227 19.8593 22.5298 19.9368 22.4758 20.04C22.4217 20.1432 22.4109 20.2637 22.4456 20.3749C22.5244 20.628 22.5642 20.8918 22.5634 21.1569V23.8413C22.5724 24.1908 22.5114 24.5386 22.3839 24.8642C22.2564 25.1898 22.065 25.4866 21.8209 25.737C21.5769 25.9874 21.2852 26.1865 20.9631 26.3224C20.6409 26.4583 20.2948 26.5283 19.9451 26.5283C19.5954 26.5283 19.2493 26.4583 18.9271 26.3224C18.605 26.1865 18.3133 25.9874 18.0693 25.737C17.8252 25.4866 17.6338 25.1898 17.5063 24.8642C17.3788 24.5386 17.3178 24.1908 17.3268 23.8413V21.1569C17.3281 20.7873 17.4075 20.4221 17.5596 20.0853C17.7117 19.7484 17.9332 19.4474 18.2096 19.202C18.486 18.9566 18.8111 18.7724 19.1637 18.6612C19.5162 18.5501 19.8882 18.5146 20.2554 18.5571C20.3712 18.5706 20.4876 18.5376 20.5791 18.4653C20.6706 18.3929 20.7295 18.2872 20.7431 18.1714C20.7566 18.0555 20.7235 17.9391 20.6512 17.8476C20.5788 17.7562 20.4731 17.6972 20.3573 17.6837C20.2207 17.6689 20.0834 17.6613 19.946 17.6608C19.0189 17.6619 18.1301 18.0306 17.4744 18.6859C16.8187 19.3413 16.4496 20.2299 16.4479 21.1569V23.8413C16.4375 24.3071 16.5202 24.7704 16.6913 25.2038C16.8623 25.6373 17.1183 26.0322 17.444 26.3653C17.7698 26.6985 18.1589 26.9632 18.5884 27.1439C19.0179 27.3246 19.4791 27.4177 19.9451 27.4177C20.4111 27.4177 20.8723 27.3246 21.3018 27.1439C21.7313 26.9632 22.1204 26.6985 22.4462 26.3653C22.7719 26.0322 23.0279 25.6373 23.1989 25.2038C23.37 24.7704 23.4527 24.3071 23.4423 23.8413V21.1569C23.4429 20.8029 23.3896 20.4509 23.2841 20.113C23.2483 20.0025 23.1707 19.9104 23.0678 19.8565C22.965 19.8026 22.8451 19.7911 22.7339 19.8245ZM14.7061 18.5396C14.8227 18.5396 14.9344 18.4933 15.0169 18.4108C15.0993 18.3284 15.1456 18.2166 15.1456 18.1001C15.1456 17.9835 15.0993 17.8718 15.0169 17.7894C14.9344 17.7069 14.8227 17.6606 14.7061 17.6606H11.9609C11.8444 17.6606 11.7326 17.7069 11.6502 17.7894C11.5678 17.8718 11.5215 17.9835 11.5215 18.1001C11.5215 18.2166 11.5678 18.3284 11.6502 18.4108C11.7326 18.4933 11.8444 18.5396 11.9609 18.5396H12.9504V26.4552H11.9609C11.8444 26.4552 11.7326 26.5015 11.6502 26.5839C11.5678 26.6663 11.5215 26.7781 11.5215 26.8946C11.5215 27.0112 11.5678 27.1229 11.6502 27.2053C11.7326 27.2878 11.8444 27.3341 11.9609 27.3341H14.7061C14.8227 27.3341 14.9344 27.2878 15.0169 27.2053C15.0993 27.1229 15.1456 27.0112 15.1456 26.8946C15.1456 26.7781 15.0993 26.6663 15.0169 26.5839C14.9344 26.5015 14.8227 26.4552 14.7061 26.4552H13.8293V18.5396H14.7061Z" fill="#FF6C23" stroke="#FF6C23" stroke-width="0.5"></path>
  </g>
  <defs>
    <clipPath id="clip0_1126_5762">
      <rect width="45" height="45" fill="white"></rect>
    </clipPath>
  </defs>
</svg>
