<svg width="244" height="47" viewBox="0 0 244 47" fill="none" xmlns="http://www.w3.org/2000/svg">
<g clip-path="url(#clip0_127_61)">
<path d="M0.124224 4H20.8696L22.9814 4.49689L24.4721 5.11801L25.5901 5.73913L26.7081 6.6087L27.8261 7.97516L28.4472 9.34162L28.8199 11.0807V13.0683L28.323 15.0559L27.5776 16.5466L26.7081 17.5404H21.8634V13.0683L21.3665 10.8323L20.3727 8.84472L19.8758 8.2236L18.882 7.47826L17.5155 6.85714L16.3975 6.6087H13.6646L12.4224 6.73292V20.1491L10.3106 20.8944L8.32298 21.8882L6.58385 22.882L4.84472 24.1242L3.22981 25.4907L2.1118 26.4845L1.49068 27.1056L1.73913 26.3602L2.6087 24.9938L4.09938 23.3789L5.21739 22.3851V7.47826L4.7205 6.23602L3.97516 5.61491L3.60248 5.49068L0.372671 5.36646L0 4.74534L0.124224 4Z" fill="white"/>
<path d="M30.1864 18.5342H31.8013V18.6584L28.8199 19.2795L26.3355 20.1491L24.3479 21.1429L23.2299 21.764L25.3417 22.3851L27.3293 23.3789L28.9442 24.6211L30.1864 25.9876L31.3044 27.9752L31.9255 29.7143L32.2982 31.5777L32.4224 33.6895L32.174 35.677L31.6771 37.2919L31.056 38.5342L29.9379 40.0249L28.5715 41.2671L26.5839 42.5093L24.8448 43.2547L22.2361 44H8.44727V40.7702L8.81994 38.1615L9.31683 36.0497L10.1864 33.5652L11.1802 31.5777L12.2982 29.8385L12.6709 29.4659L12.7951 38.7826L13.292 39.9006L13.9131 40.5218L14.9069 41.1429L16.2734 41.5155L17.1429 41.6398H19.2547L21.1181 41.2671L22.6088 40.5218L23.6025 39.6522L24.4721 38.1615L24.969 36.2982V33.1926L24.5963 31.0808L23.851 29.0932L23.1057 27.7267L22.1119 26.4845L21.2423 25.6149L19.5032 24.4969L17.764 23.7516L18.5094 22.882L19.5032 22.0124L21.1181 21.0187L22.9814 20.1491L25.2175 19.4037L28.1988 18.7826L30.1864 18.5342Z" fill="white"/>
<path d="M22.6082 18.9067H24.8442L24.4715 19.1552L22.1113 20.0248L19.0057 21.5154L16.397 23.2546L15.1548 24.2484L13.9125 25.3664L12.2976 26.9813L10.9312 28.7204L9.44049 30.9564L8.32248 32.944L7.08024 35.6769L6.08645 38.6583L5.58956 40.8943H5.46533V26.2359L7.08024 24.621L8.94359 23.2546L11.0554 22.0123L13.5399 20.8943L16.1486 20.0248L18.8815 19.4036L21.366 19.031L22.6082 18.9067Z" fill="#5483ED"/>
<path d="M52.976 18.56C53.768 18.56 54.464 18.776 55.064 19.208C55.664 19.64 56.132 20.24 56.468 21.008L54.092 23.996H52.724C52.628 23.396 52.448 22.976 52.184 22.736C51.944 22.472 51.608 22.34 51.176 22.34C50.648 22.34 50.084 22.484 49.484 22.772C48.908 23.036 48.248 23.552 47.504 24.32V35.048L52.544 36.596L51.824 38.036H39.98V36.92L43.184 34.4V24.212L39.98 22.34V21.224L46.136 18.2L47.252 22.628L50.996 18.812C51.5 18.62 52.16 18.524 52.976 18.524V18.56ZM77.656 20L68.548 38L61.06 47.504L59.692 46.424C61.06 44.96 62.092 43.676 62.788 42.572C63.508 41.468 64.012 40.352 64.3 39.224C64.588 38.12 64.732 36.8 64.732 35.264L60.196 24.284L56.848 22.34V21.224L63.004 18.2L64.372 23.636L68.764 34.364L73.84 23.816L69.052 20.324L69.772 18.884H77.656V20ZM91.2322 38.072C90.6802 38.264 90.0082 38.36 89.2162 38.36C87.2242 38.36 85.7602 37.844 84.8242 36.812C83.9122 35.756 83.4562 34.136 83.4562 31.952V21.44H79.5682V19.964L86.4082 12.008H87.7762V19.964H94.2562V21.44H87.7762V32.384C87.7762 34.328 88.7122 35.3 90.5842 35.3C91.0882 35.3 91.5682 35.192 92.0242 34.976C92.5042 34.76 93.0922 34.376 93.7882 33.824L94.8682 35.192L91.2322 38.072ZM109.315 38.072C108.355 38.264 107.203 38.36 105.859 38.36C104.275 38.36 102.847 37.952 101.575 37.136C100.327 36.296 99.3426 35.168 98.6226 33.752C97.9266 32.336 97.5786 30.776 97.5786 29.072C97.5786 27.224 98.1426 25.496 99.2706 23.888C100.399 22.256 101.803 20.96 103.483 20C105.187 19.016 106.831 18.524 108.415 18.524C110.695 18.524 112.459 19.424 113.707 21.224C114.979 23.024 115.615 25.4 115.615 28.352H102.295C102.439 30.392 102.991 32.06 103.951 33.356C104.935 34.652 106.267 35.3 107.947 35.3C109.507 35.3 111.727 34.088 114.607 31.664L115.687 33.032L109.315 38.072ZM106.327 21.548C103.735 21.548 102.379 23.324 102.259 26.876H110.683C110.467 25.58 110.239 24.596 109.999 23.924C109.783 23.228 109.387 22.664 108.811 22.232C108.259 21.776 107.431 21.548 106.327 21.548ZM130.827 18.524C131.811 18.524 132.951 18.668 134.247 18.956C135.567 19.22 136.515 19.52 137.091 19.856V25.4H135.723C134.787 24.2 133.707 23.264 132.483 22.592C131.283 21.896 130.035 21.548 128.739 21.548C127.635 21.548 126.795 22.04 126.219 23.024C125.667 24.008 125.391 25.448 125.391 27.344C125.391 29.6 125.883 31.496 126.867 33.032C127.851 34.544 129.255 35.3 131.079 35.3C132.447 35.3 134.391 34.316 136.911 32.348L137.991 33.716L132.447 38.072C131.487 38.264 130.335 38.36 128.991 38.36C127.407 38.36 125.979 37.952 124.707 37.136C123.459 36.296 122.475 35.168 121.755 33.752C121.059 32.336 120.711 30.776 120.711 29.072C120.711 27.224 121.227 25.484 122.259 23.852C123.315 22.22 124.635 20.924 126.219 19.964C127.803 19.004 129.339 18.524 130.827 18.524ZM153.626 18.524C155.21 18.524 156.626 18.944 157.874 19.784C159.146 20.6 160.13 21.716 160.826 23.132C161.546 24.548 161.906 26.108 161.906 27.812C161.906 29.66 161.342 31.4 160.214 33.032C159.086 34.64 157.67 35.936 155.966 36.92C154.286 37.88 152.654 38.36 151.07 38.36C149.486 38.36 148.058 37.952 146.786 37.136C145.538 36.296 144.554 35.168 143.834 33.752C143.138 32.336 142.79 30.776 142.79 29.072C142.79 27.224 143.354 25.496 144.482 23.888C145.61 22.256 147.014 20.96 148.694 20C150.398 19.016 152.042 18.524 153.626 18.524ZM151.538 21.548C148.826 21.548 147.47 23.48 147.47 27.344C147.47 29.624 147.962 31.532 148.946 33.068C149.93 34.58 151.334 35.336 153.158 35.336C155.87 35.336 157.226 33.392 157.226 29.504C157.226 27.248 156.734 25.364 155.75 23.852C154.766 22.316 153.362 21.548 151.538 21.548ZM188.146 38H181.306V35.408L177.958 38.072C177.19 38.264 176.266 38.36 175.186 38.36C173.602 38.36 172.174 37.952 170.902 37.136C169.654 36.296 168.67 35.168 167.95 33.752C167.254 32.336 166.906 30.776 166.906 29.072C166.906 27.224 167.47 25.496 168.598 23.888C169.726 22.256 171.13 20.96 172.81 20C174.514 19.016 176.158 18.524 177.742 18.524C179.062 18.524 180.262 18.896 181.342 19.64V12.224L178.138 9.992V8.876L184.294 6.572H185.662V35.3L188.866 36.56L188.146 38ZM177.022 35.3C177.742 35.3 178.426 35.204 179.074 35.012C179.746 34.796 180.49 34.4 181.306 33.824V25.616C181.162 24.416 180.598 23.444 179.614 22.7C178.654 21.932 177.334 21.548 175.654 21.548C172.942 21.548 171.586 23.48 171.586 27.344C171.586 29.6 172.054 31.496 172.99 33.032C173.926 34.544 175.27 35.3 177.022 35.3ZM204.061 38.072C203.101 38.264 201.949 38.36 200.605 38.36C199.021 38.36 197.593 37.952 196.321 37.136C195.073 36.296 194.089 35.168 193.369 33.752C192.673 32.336 192.325 30.776 192.325 29.072C192.325 27.224 192.889 25.496 194.017 23.888C195.145 22.256 196.549 20.96 198.229 20C199.933 19.016 201.577 18.524 203.161 18.524C205.441 18.524 207.205 19.424 208.453 21.224C209.725 23.024 210.361 25.4 210.361 28.352H197.041C197.185 30.392 197.737 32.06 198.697 33.356C199.681 34.652 201.013 35.3 202.693 35.3C204.253 35.3 206.473 34.088 209.353 31.664L210.433 33.032L204.061 38.072ZM201.073 21.548C198.481 21.548 197.125 23.324 197.005 26.876H205.429C205.213 25.58 204.985 24.596 204.745 23.924C204.529 23.228 204.133 22.664 203.557 22.232C203.005 21.776 202.177 21.548 201.073 21.548ZM226.51 34.112C226.51 33.44 226.138 32.828 225.394 32.276C224.65 31.7 223.51 31.016 221.974 30.224C220.726 29.576 219.718 29.012 218.95 28.532C218.182 28.052 217.522 27.5 216.97 26.876C216.442 26.228 216.178 25.532 216.178 24.788C216.178 23.924 216.538 23 217.258 22.016C217.978 21.032 218.866 20.204 219.922 19.532C220.978 18.86 221.962 18.524 222.874 18.524C223.978 18.524 225.25 18.668 226.69 18.956C228.154 19.22 229.21 19.52 229.858 19.856V25.4H228.49C227.722 23.912 226.834 22.76 225.826 21.944C224.818 21.104 223.786 20.684 222.73 20.684C221.986 20.684 221.386 20.888 220.93 21.296C220.474 21.68 220.246 22.172 220.246 22.772C220.246 23.516 220.63 24.188 221.398 24.788C222.19 25.364 223.378 26.048 224.962 26.84C226.186 27.464 227.17 28.004 227.914 28.46C228.658 28.916 229.282 29.456 229.786 30.08C230.314 30.68 230.578 31.352 230.578 32.096C230.578 32.984 230.194 33.92 229.426 34.904C228.682 35.864 227.758 36.68 226.654 37.352C225.574 38.024 224.578 38.36 223.666 38.36C222.49 38.36 221.086 38.228 219.454 37.964C217.846 37.676 216.694 37.364 215.998 37.028V31.484H217.366C218.206 32.972 219.202 34.136 220.354 34.976C221.506 35.792 222.67 36.2 223.846 36.2C224.638 36.2 225.274 35.996 225.754 35.588C226.258 35.18 226.51 34.688 226.51 34.112Z" fill="white"/>
</g>
<defs>
<clipPath id="clip0_127_61">
<rect width="244" height="47" fill="white"/>
</clipPath>
</defs>
</svg>
