<svg width="148" height="46" viewBox="0 0 148 46" fill="none" xmlns="http://www.w3.org/2000/svg">
<path d="M53.38 35V10.5H58.7L66.505 26.04L74.205 10.5H79.525V35H75.045V18.095L68.22 31.5H64.685L57.86 18.095V35H53.38ZM90.1584 35.42C88.6651 35.42 87.4401 35.1867 86.4834 34.72C85.5268 34.23 84.8151 33.5883 84.3484 32.795C83.8818 32.0017 83.6484 31.1267 83.6484 30.17C83.6484 28.56 84.2784 27.2533 85.5384 26.25C86.7984 25.2467 88.6884 24.745 91.2084 24.745H95.6184V24.325C95.6184 23.135 95.2801 22.26 94.6034 21.7C93.9268 21.14 93.0868 20.86 92.0834 20.86C91.1734 20.86 90.3801 21.0817 89.7034 21.525C89.0268 21.945 88.6068 22.575 88.4434 23.415H84.0684C84.1851 22.155 84.6051 21.0583 85.3284 20.125C86.0751 19.1917 87.0318 18.48 88.1984 17.99C89.3651 17.4767 90.6718 17.22 92.1184 17.22C94.5918 17.22 96.5401 17.8383 97.9634 19.075C99.3868 20.3117 100.098 22.0617 100.098 24.325V35H96.2834L95.8634 32.2C95.3501 33.1333 94.6268 33.9033 93.6934 34.51C92.7834 35.1167 91.6051 35.42 90.1584 35.42ZM91.1734 31.92C92.4568 31.92 93.4484 31.5 94.1484 30.66C94.8718 29.82 95.3268 28.7817 95.5134 27.545H91.6984C90.5084 27.545 89.6568 27.7667 89.1434 28.21C88.6301 28.63 88.3734 29.155 88.3734 29.785C88.3734 30.4617 88.6301 30.9867 89.1434 31.36C89.6568 31.7333 90.3334 31.92 91.1734 31.92ZM104.374 35V17.64H108.329L108.679 20.58C109.215 19.5533 109.985 18.7367 110.989 18.13C112.015 17.5233 113.217 17.22 114.594 17.22C116.74 17.22 118.409 17.8967 119.599 19.25C120.789 20.6033 121.384 22.5867 121.384 25.2V35H116.904V25.62C116.904 24.1267 116.6 22.9833 115.994 22.19C115.387 21.3967 114.442 21 113.159 21C111.899 21 110.86 21.4433 110.044 22.33C109.25 23.2167 108.854 24.4533 108.854 26.04V35H104.374ZM128.083 14.945C127.266 14.945 126.589 14.7 126.053 14.21C125.539 13.72 125.283 13.1017 125.283 12.355C125.283 11.6083 125.539 11.0017 126.053 10.535C126.589 10.045 127.266 9.8 128.083 9.8C128.899 9.8 129.564 10.045 130.078 10.535C130.614 11.0017 130.883 11.6083 130.883 12.355C130.883 13.1017 130.614 13.72 130.078 14.21C129.564 14.7 128.899 14.945 128.083 14.945ZM125.843 35V17.64H130.323V35H125.843ZM142.734 35C140.914 35 139.455 34.5567 138.359 33.67C137.262 32.7833 136.714 31.2083 136.714 28.945V21.385H133.739V17.64H136.714L137.239 12.985H141.194V17.64H145.884V21.385H141.194V28.98C141.194 29.82 141.369 30.4033 141.719 30.73C142.092 31.0333 142.722 31.185 143.609 31.185H145.779V35H142.734Z" fill="#000B47"/>
<g clip-path="url(#clip0_7_6)">
<path d="M29.5688 40.5518C30.2248 41.9495 32.0935 42.1958 33.0444 40.9889C33.0505 40.9797 33.0595 40.9705 33.0655 40.9612L36.7669 36.2138L27.2908 35.7151L29.5688 40.5518Z" fill="#CC2331"/>
<path d="M39.2616 28.1199L34.2181 26.9438L36.77 36.2077L40.4202 31.525C40.4292 31.5127 40.4382 31.5004 40.4503 31.488C41.3862 30.2689 40.7362 28.4617 39.2616 28.1199Z" fill="#F06E7A"/>
<path d="M31.7415 26.3618C30.9621 26.1801 30.1496 26.4695 29.6531 27.1099L26.4693 31.1954C25.9698 31.8358 25.8735 32.7101 26.2226 33.4459L27.2909 35.715L36.767 36.2137L36.773 36.2076L34.2211 26.9437L31.7415 26.3618Z" fill="#E24956"/>
<path d="M22.6175 13.9453L27.2096 16.2081C27.9288 16.5622 28.7835 16.4637 29.4094 15.9557L31.4707 14.2747L31.3895 14.2562L29.7013 4.823H29.6983L21.462 9.3672L21.4409 9.37951V12.0272C21.4409 12.8462 21.8983 13.5912 22.6175 13.9453Z" fill="#F49000"/>
<path d="M29.7013 4.81999L24.4231 2.22154C24.411 2.21538 24.399 2.20923 24.387 2.20307C23.0178 1.53806 21.4409 2.58791 21.4409 4.13959V9.38266L21.462 9.37035L29.7013 4.81999Z" fill="#FAB320"/>
<path d="M31.4706 14.2716L35.4398 11.0328C36.6224 10.0661 36.4449 8.14802 35.0817 7.4707C35.0727 7.46455 35.0636 7.46147 35.0516 7.45531L29.7012 4.823L31.3863 14.2531L31.4706 14.2716Z" fill="#FAB320"/>
<path d="M6.56014 11.036L10.6015 14.3333L10.6136 14.2564L12.2717 4.83545L6.94833 7.45852C6.93629 7.46468 6.92726 7.46776 6.91523 7.47392C5.55505 8.15124 5.37449 10.0693 6.56014 11.036Z" fill="#3DC6D1"/>
<path d="M20.5591 4.13951C20.5591 2.59091 18.9823 1.53799 17.6131 2.20299C17.601 2.20915 17.589 2.21531 17.5769 2.22147L12.2747 4.83223L20.5591 9.37335V4.13951Z" fill="#3DC6D1"/>
<path d="M10.6016 14.3332L12.5907 15.9557C13.2166 16.4668 14.0712 16.5653 14.7904 16.2082L19.3825 13.9453C20.1017 13.5913 20.5591 12.8462 20.5591 12.0273V9.3734L12.2747 4.83228L12.2717 4.83535L10.6136 14.2563L10.6016 14.3332Z" fill="#00B6BA"/>
<path d="M7.64651 26.0509L10.069 25.4844C10.8483 25.3027 11.4562 24.6808 11.6338 23.8834L12.7682 18.7943C12.9458 17.9969 12.6629 17.1657 12.037 16.6577L10.0118 15.0044L1.38428 18.7604V18.7666L7.58633 25.9831L7.64651 26.0509Z" fill="#0090BC"/>
<path d="M2.54886 27.2423L7.64351 26.0509L7.58332 25.9831L1.38128 18.7666L0.0572094 24.6993C0.0542002 24.7116 0.0511909 24.7239 0.0481817 24.7332C-0.279826 26.2479 1.07433 27.5872 2.54886 27.2423Z" fill="#22A2D4"/>
<path d="M6.00948 11.7409C4.82384 10.7742 3.03936 11.3807 2.6933 12.8892C2.69029 12.9046 2.68728 12.917 2.68427 12.9323L1.38428 18.7604L10.0118 15.0074L6.00948 11.7409Z" fill="#22A2D4"/>
<path d="M40.6127 18.739L31.9822 15.0076L29.96 16.6578C29.3341 17.1688 29.0512 17.997 29.2287 18.7944L30.3632 23.8835C30.5408 24.6809 31.1486 25.3028 31.928 25.4845L34.3625 26.054L40.6127 18.7513V18.739Z" fill="#FF912B"/>
<path d="M39.3188 12.9325C39.3157 12.9171 39.3127 12.9017 39.3097 12.8863C38.9637 11.3777 37.1792 10.7712 35.9935 11.738L31.9852 15.0076L40.6157 18.739L39.3188 12.9325Z" fill="#FFA757"/>
<path d="M41.9489 24.73C41.9459 24.7208 41.9429 24.7085 41.9429 24.6992L40.6158 18.748L34.3656 26.0508L39.4512 27.2361C40.9288 27.5809 42.2829 26.2417 41.9489 24.73Z" fill="#FA7902"/>
<path d="M7.77892 26.9438L2.74145 28.123C1.26391 28.4678 0.613912 30.275 1.5528 31.4911C1.56182 31.5034 1.57085 31.5158 1.57988 31.525L5.2331 36.2139L7.77892 26.9438Z" fill="#0A4366"/>
<path d="M14.7182 35.7058L15.7835 33.446C16.1295 32.7102 16.0332 31.8359 15.5367 31.1955L12.3499 27.1131C11.8504 26.4727 11.0409 26.1833 10.2615 26.365L7.77889 26.9438L5.23608 36.2107L14.7182 35.7058Z" fill="#065280"/>
<path d="M5.23608 36.2138L8.93745 40.9612C8.94648 40.9704 8.9525 40.9827 8.96153 40.992C9.91245 42.1988 11.7782 41.9525 12.4372 40.5548L14.7182 35.7058L5.23608 36.2138Z" fill="#2070A1"/>
<path d="M25.4281 33.8371C25.0821 33.1013 24.3538 32.6333 23.5534 32.6333H18.4497C17.6523 32.6333 16.921 33.1013 16.5749 33.8371L15.4946 36.1338L21.0046 43.9969H21.0076L26.5085 36.1246L25.4281 33.8371Z" fill="#8C103D"/>
<path d="M26.5054 36.1277L21.0045 44H26.8966C26.9117 44 26.9267 44 26.9387 44C28.4524 43.9908 29.4304 42.3436 28.7714 40.949L26.5054 36.1277Z" fill="#A6325C"/>
<path d="M13.2287 40.9458C12.5727 42.3436 13.5477 43.9907 15.0613 43.9969C15.0734 43.9969 15.0884 43.9969 15.1004 43.9969H21.0046L15.4947 36.1338L13.2287 40.9458Z" fill="#78012C"/>
</g>
<defs>
<clipPath id="clip0_7_6">
<rect width="42" height="42" fill="white" transform="translate(0 2)"/>
</clipPath>
</defs>
</svg>
