<svg width="20" height="20" viewBox="0 0 20 20" fill="none" xmlns="http://www.w3.org/2000/svg">
<g id="Star" clip-path="url(#clip0_302_773)">
<g id="Star_2">
<g id="Group">
<path id="Vector" d="M15.5441 19.4888L9.99999 16.0195L4.45589 19.4888C4.25448 19.6164 3.99468 19.6067 3.80073 19.4659C3.60734 19.3257 3.51863 19.082 3.57698 18.8502L5.16312 12.505L0.209524 8.30508C0.0263987 8.15172 -0.0451248 7.90223 0.0287034 7.67508C0.102531 7.44735 0.307375 7.2877 0.545422 7.2711L7.01081 6.81961L9.4564 0.753677C9.63609 0.310786 10.3639 0.310786 10.5436 0.753677L12.9892 6.81961L19.4546 7.2711C19.6926 7.2877 19.8975 7.44735 19.9713 7.67508C20.0451 7.90223 19.9736 8.15172 19.7905 8.30508L14.8368 12.5051L16.423 18.8503C16.4813 19.082 16.3926 19.3258 16.1992 19.466C16.0013 19.6097 15.7422 19.613 15.5441 19.4888Z" fill="#C9C9C9"/>
</g>
</g>
</g>
<defs>
<clipPath id="clip0_302_773">
<rect width="20" height="20" fill="white"/>
</clipPath>
</defs>
</svg>
