<svg width="50" height="50" viewBox="0 0 50 50" fill="none" xmlns="http://www.w3.org/2000/svg">
<g id="Icon" clip-path="url(#clip0_302_946)">
<path id="Vector" d="M30.5664 50H11.6211C7.31316 50 3.80859 46.4954 3.80859 42.1875V7.8125C3.80859 3.50456 7.31316 0 11.6211 0H30.5664C34.8743 0 38.3789 3.50456 38.3789 7.8125V10.8517C38.3789 11.9305 37.5046 12.8048 36.4258 12.8048C35.347 12.8048 34.4727 11.9305 34.4727 10.8517V7.8125C34.4727 5.65872 32.7202 3.90625 30.5664 3.90625H11.6211C9.46732 3.90625 7.71484 5.65872 7.71484 7.8125V42.1875C7.71484 44.3413 9.46732 46.0938 11.6211 46.0938H30.5664C32.7202 46.0938 34.4727 44.3413 34.4727 42.1875V38.4884C34.4727 37.4096 35.347 36.5353 36.4258 36.5353C37.5046 36.5353 38.3789 37.4096 38.3789 38.4884V42.1875C38.3789 46.4954 34.8743 50 30.5664 50ZM23.0469 41.1251C23.0469 40.0463 22.1725 39.172 21.0938 39.172C20.015 39.172 19.1406 40.0463 19.1406 41.1251C19.1406 42.2039 20.015 43.0782 21.0938 43.0782C22.1725 43.0782 23.0469 42.2039 23.0469 41.1251ZM25 8.89854C25 7.81975 24.1257 6.94542 23.0469 6.94542H19.1406C18.0618 6.94542 17.1875 7.81975 17.1875 8.89854C17.1875 9.97734 18.0618 10.8517 19.1406 10.8517H23.0469C24.1257 10.8517 25 9.97734 25 8.89854ZM27.6646 34.7775C28.5515 34.7775 29.4277 34.193 29.668 33.3469L34.1042 17.7418C34.4605 16.4894 33.511 15.2462 32.1987 15.2462C31.3118 15.2462 30.5332 15.8306 30.2929 16.6767L25.8568 32.2823C25.5009 33.5346 26.3523 34.7775 27.6646 34.7775ZM22.5903 32.4192C23.2834 31.5926 23.1751 30.3604 22.3484 29.6677L17.5182 25.6176C17.3157 25.4433 17.2852 25.2247 17.2852 25.1095C17.2852 24.9943 17.3157 24.7757 17.5182 24.6014L22.3484 20.5513C23.1751 19.8586 23.2834 18.6264 22.5903 17.7998C21.8975 16.9735 20.6654 16.8648 19.8387 17.5579L15.0024 21.6129C14.9994 21.6156 14.996 21.6183 14.9929 21.6213C13.9671 22.4922 13.3789 23.7637 13.3789 25.1095C13.3789 26.4553 13.9671 27.7267 14.9929 28.5976C14.996 28.6003 14.999 28.603 15.0024 28.606L19.8387 32.6611C20.2045 32.9678 20.6497 33.1173 21.0926 33.1173C21.6503 33.1173 22.2042 32.8796 22.5903 32.4192ZM39.7465 32.6481L44.4798 28.5976C45.5055 27.7267 46.0938 26.4553 46.0938 25.1095C46.0938 23.7637 45.5055 22.4922 44.4851 21.6259L39.7465 17.5709C38.9267 16.8694 37.6938 16.9655 36.9926 17.7849C36.2911 18.6047 36.3873 19.8376 37.2067 20.5387L41.951 24.5983C42.1566 24.773 42.1875 24.9935 42.1875 25.1095C42.1875 25.2251 42.157 25.4456 41.9457 25.6248L37.2067 29.6803C36.3873 30.3814 36.2911 31.6143 36.9926 32.4337C37.3791 32.8854 37.9265 33.1173 38.4777 33.1173C38.9267 33.1173 39.3784 32.9632 39.7465 32.6481Z" fill="#F97D7F"/>
</g>
<defs>
<clipPath id="clip0_302_946">
<rect width="50" height="50" fill="white"/>
</clipPath>
</defs>
</svg>
